<?xml version="1.0" encoding="UTF-8"?>
<svg version="1.1" xmlns="http://www.w3.org/2000/svg" width="1024" height="1024">
<path d="M0 0 C337.92 0 675.84 0 1024 0 C1024 337.92 1024 675.84 1024 1024 C686.08 1024 348.16 1024 0 1024 C0 686.08 0 348.16 0 0 Z " fill="#FDFEFE" transform="translate(0,0)"/>
<path d="M0 0 C4.31538263 1.70817229 6.01656943 3.86140736 8 8 C8.27854267 10.9028131 8.39725514 13.58781763 8.36889648 16.48706055 C8.37266296 17.33004196 8.37642944 18.17302338 8.38031006 19.04154968 C8.38673324 20.86776812 8.38642121 22.69402 8.38012505 24.52023888 C8.37099571 27.41783741 8.38126148 30.31479138 8.39674377 33.21235657 C8.43678137 41.44909677 8.43805321 49.68578608 8.43579102 57.92260742 C8.43573971 62.96651984 8.45501391 68.01008617 8.48512459 73.05390358 C8.49589061 75.89560003 8.48385206 78.73661872 8.47129822 81.57829285 C8.49281827 91.94717621 9.25239725 99.75399541 14.6875 108.8125 C18.6064823 112.51964542 23.28116905 115.86653705 28.78515625 116.13671875 C29.51605469 116.09160156 30.24695313 116.04648437 31 116 C30.60167969 115.20078125 30.20335937 114.4015625 29.79296875 113.578125 C22.53399811 98.53033186 19.10796385 83.51413332 23.91015625 67.02734375 C30.40538249 48.98504864 41.07944228 37.43277821 57.9921875 28.40234375 C71.11373938 22.64361866 89.37612978 22.71215642 103 27 C116.52102825 32.7969646 127.26074049 41.49042106 135 54 C136.25 57.3671875 136.25 57.3671875 137 60 C137.66 60 138.32 60 139 60 C139.38478516 58.68128906 139.38478516 58.68128906 139.77734375 57.3359375 C144.80647093 43.61429338 157.41229175 34.32742134 170 28 C184.88681443 21.7857793 201.35930067 22.29407398 216.18359375 28.22607422 C231.74039371 34.85444195 241.8396965 46.01540496 249 61 C250.42593867 64.71844458 251 66.97313786 251 71 C251.66 71 252.32 71 253 71 C252.92910156 69.84242188 252.85820313 68.68484375 252.78515625 67.4921875 C252.79462559 62.70912118 254.22955838 59.3035308 256.4375 55.125 C256.978302 54.08291382 256.978302 54.08291382 257.5300293 53.01977539 C265.47620116 38.29241402 278.12227321 30.02634806 293.6875 24.75 C307.960691 21.65325245 324.01865923 24.78257512 336.4765625 32.24609375 C348.81815511 40.82407375 357.98325511 52.46616625 361.54801941 67.27688599 C362.05534737 70.33345947 362.14938941 73.23280805 362.17700195 76.33154297 C362.18983719 77.5898996 362.20267242 78.84825623 362.21589661 80.14474487 C362.22406417 81.51055504 362.23150787 82.8763697 362.23828125 84.2421875 C362.24235678 84.93494907 362.2464323 85.62771065 362.25063133 86.341465 C362.27143221 90.00644882 362.28576119 93.67139584 362.29516602 97.33642578 C362.30623508 101.10803292 362.34065702 104.87905089 362.38033772 108.65044975 C362.40655499 111.56394502 362.41486218 114.47730064 362.41844749 117.39090347 C362.42329807 118.78070188 362.43486833 120.17049468 362.45348549 121.56017685 C362.62439216 135.15949199 362.62439216 135.15949199 358 141 C353.68266618 143.9741633 350.18923924 144.6486549 345 144 C339.91356199 141.26114877 336.82995973 138.4898792 335 133 C334.9029547 131.03348218 334.86455305 129.06387121 334.8581543 127.0949707 C334.85111984 125.87973221 334.84408539 124.66449371 334.83683777 123.41242981 C334.83267349 122.09683578 334.82850922 120.78124176 334.82421875 119.42578125 C334.81378947 118.05917085 334.80236606 116.6925677 334.78999329 115.32597351 C334.73764954 109.52667591 334.68960802 103.72750703 334.67407227 97.92797852 C334.66393916 94.37753683 334.63447911 90.82769178 334.59275246 87.2774868 C334.57459038 85.27917017 334.57708046 83.28069989 334.58000183 81.28230286 C334.45160521 71.69787763 332.75794927 65.1554757 326 58 C317.31460598 51.39154803 308.44387654 51.18440315 298 52 C291.02865258 53.59804733 285.80397042 59.15487473 282 65 C278.49738208 72.47790701 278.58950144 79.89165275 278.62890625 88.01171875 C278.62219905 89.35212739 278.61361459 90.69252781 278.60325623 92.03291321 C278.56346603 97.68184288 278.56195798 103.33068959 278.56420898 108.97973633 C278.56426021 112.45273209 278.54504201 115.92522351 278.51487541 119.39808083 C278.50411477 121.34891503 278.51618302 123.29983242 278.52870178 125.25065613 C278.43555742 136.31193447 278.43555742 136.31193447 274 141 C269.634442 143.910372 266.20499921 144.6506249 261 144 C256.15141365 141.48246478 254.91117531 139.85195885 252 135 C252 122.46 252 109.92 252 97 C222.96 97 193.92 97 164 97 C168.71405854 105.48530537 172.9063482 112.27775191 182.125 116 C193.25960665 118.89963715 201.87787972 117.62015023 211.7734375 112.44458008 C216.19336248 110.18936038 219.32668151 109.18011164 224.19921875 110.28125 C227.78625878 111.71295361 230.02336085 113.69781446 232.3125 116.75 C233.69465602 121.2734197 233.67909421 125.37771938 231.875 129.6875 C224.91712245 138.26888231 214.71618341 142.3119715 204 144 C192.46506203 144.98199764 180.55522541 145.22320433 170 140 C169.01128906 139.525625 168.02257812 139.05125 167.00390625 138.5625 C152.64533736 130.95337305 142.29650333 118.31911733 137 103 C136.65140369 101.00260376 136.31653478 99.00272735 136 97 C135.19677811 97.00888245 134.39355621 97.01776489 133.56599426 97.0269165 C125.9887714 97.10713312 118.41175501 97.16799995 110.83421803 97.20724869 C106.9386919 97.22810547 103.04351723 97.2563873 99.14819336 97.30175781 C95.38749942 97.34528508 91.6271431 97.36915148 87.86621666 97.37950897 C86.43288548 97.38688812 84.99957235 97.4012982 83.56638527 97.42292023 C81.55591546 97.45203957 79.54510445 97.45363462 77.53442383 97.45410156 C76.39080887 97.46298401 75.24719391 97.47186646 74.06892395 97.48101807 C70.32471105 96.89415633 68.69314077 95.61224314 66 93 C63.4638252 88.77304201 63.03551461 83.78973253 64 79 C66.04515141 75.62487283 68.442865 72.7785675 72 71 C74.98970289 70.91294854 77.95584955 70.88449855 80.9453125 70.90234375 C81.8303244 70.9037587 82.7153363 70.90517365 83.62716675 70.90663147 C86.45981191 70.9122386 89.29237864 70.92479229 92.125 70.9375 C94.04296761 70.94251408 95.96093646 70.94707715 97.87890625 70.95117188 C102.58596782 70.96221034 107.2929706 70.97947975 112 71 C111.37505676 69.71010567 110.74550648 68.42244272 110.11401367 67.13574219 C109.58888435 66.0597879 109.58888435 66.0597879 109.05314636 64.96209717 C106.03199968 59.33345564 99.73251362 55.00550545 93.87890625 52.6640625 C84.4296911 50.48446063 73.45179864 50.32347889 65.03515625 55.53515625 C64.02775391 56.26025391 64.02775391 56.26025391 63 57 C62.35933594 57.41121094 61.71867187 57.82242188 61.05859375 58.24609375 C54.90383958 62.72590402 50.88965709 69.62483329 49.64990234 77.11523438 C48.58298947 87.43845869 49.6620307 96.45354242 56 105 C61.99949345 111.92512958 68.9826215 116.35528087 78.171875 117.33984375 C86.68172948 117.58954605 94.36238613 116.408884 101.625 111.8125 C106.03156357 109.44601216 108.04893417 109.37129323 113 110 C116.75212276 112.01502889 118.63644095 113.45466142 121 117 C121.3359375 119.48828125 121.3359375 119.48828125 121.375 122.3125 C121.40335938 123.23675781 121.43171875 124.16101563 121.4609375 125.11328125 C120.84310982 128.98255799 119.50331538 130.99438806 117 134 C113.86328125 136.01171875 113.86328125 136.01171875 110.3125 137.6875 C109.15363281 138.24824219 107.99476563 138.80898438 106.80078125 139.38671875 C105.53750117 139.93299152 104.27047401 140.47067375 103 141 C102.40529404 141.26352264 101.81058807 141.52704529 101.19786072 141.79855347 C93.86056863 144.67206554 86.47914351 144.45478537 78.703125 144.43359375 C77.22255212 144.4381664 75.74198135 144.44347515 74.26141357 144.44947815 C71.1683283 144.45837302 68.07550167 144.4560298 64.98242188 144.44604492 C61.0545057 144.43458943 57.1274932 144.4547318 53.19969559 144.48396206 C50.14351904 144.50247876 47.0875526 144.50200071 44.03133392 144.49632454 C42.58511848 144.49617305 41.13888718 144.50207214 39.69272614 144.51461601 C22.61892838 144.64182731 8.69047762 139.97538729 -3.8984375 128.25390625 C-13.98819712 117.43273283 -18.12901201 103.79657552 -18.17700195 89.26586914 C-18.18357315 88.39695541 -18.19014435 87.52804169 -18.19691467 86.63279724 C-18.21657279 83.76691595 -18.22829096 80.90108676 -18.23828125 78.03515625 C-18.24235678 77.05429991 -18.2464323 76.07344357 -18.25063133 75.0628643 C-18.27145594 69.87532642 -18.2857756 64.68781473 -18.29516602 59.50024414 C-18.30624811 54.14576143 -18.34067914 48.79169225 -18.38033772 43.437356 C-18.40647999 39.31521329 -18.41485553 35.19316977 -18.41844749 31.07095146 C-18.42331632 29.09700146 -18.43493873 27.12305597 -18.45348549 25.14918709 C-18.47783541 22.38696487 -18.47692002 19.62582209 -18.4699707 16.86352539 C-18.48278076 16.0513858 -18.49559082 15.23924622 -18.50878906 14.40249634 C-18.46068776 9.14961836 -17.49076917 6.15863931 -14 2 C-9.53471871 -0.9768542 -5.23577218 -0.49133346 0 0 Z " fill="#020202" transform="translate(340,427)"/>
<path d="M0 0 C5.65323918 4.0980152 10.67898367 8.8108332 14 15 C14 15.66 14 16.32 14 17 C-5.8 17 -25.6 17 -46 17 C-42.95073747 7.85221241 -37.604368 2.29147119 -29.078125 -2.125 C-19.64104328 -6.09850809 -8.96101474 -4.47454131 0 0 Z " fill="#FAFAF9" transform="translate(550,481)"/>
</svg>
